<svg xmlns="http://www.w3.org/2000/svg" style="display:none">
<symbol id="web" viewBox="0 0 24 24"><path d="M4 5h16v14H4zM4 8h16M8 12h2m2 0h2m-6 4h6" fill="none" stroke="currentColor" stroke-width="1.8" stroke-linecap="round"/></symbol>
<symbol id="resume" viewBox="0 0 24 24"><path d="M6 3h9l4 4v14H6zM15 3v5h4M9 12h6M9 16h6" fill="none" stroke="currentColor" stroke-width="1.8" stroke-linecap="round"/></symbol>
<symbol id="poster" viewBox="0 0 24 24"><rect x="4" y="3" width="16" height="18" rx="2" fill="none" stroke="currentColor" stroke-width="1.8"/><path d="M7 15l3-3 2 2 2-3 3 4M8 7h8" fill="none" stroke="currentColor" stroke-width="1.8" stroke-linecap="round"/></symbol>
<symbol id="instagram" viewBox="0 0 24 24"><rect x="3" y="3" width="18" height="18" rx="5" fill="none" stroke="currentColor" stroke-width="1.8"/><circle cx="12" cy="12" r="4" fill="none" stroke="currentColor" stroke-width="1.8"/><circle cx="17.5" cy="6.5" r="1" fill="currentColor"/></symbol>
<symbol id="photo" viewBox="0 0 24 24"><path d="M4 7h4l1.5-2h5L16 7h4v12H4z" fill="none" stroke="currentColor" stroke-width="1.8"/><circle cx="12" cy="13" r="3.5" fill="none" stroke="currentColor" stroke-width="1.8"/></symbol>
<symbol id="app" viewBox="0 0 24 24"><rect x="7" y="2.5" width="10" height="19" rx="2" fill="none" stroke="currentColor" stroke-width="1.8"/><path d="M10 5h4M11 18.5h2" stroke="currentColor" stroke-width="1.8" stroke-linecap="round"/></symbol>
<symbol id="academic" viewBox="0 0 24 24"><path d="M3 9l9-5 9 5-9 5zM6 11v5c3 2 9 2 12 0v-5M21 9v7" fill="none" stroke="currentColor" stroke-width="1.8" stroke-linecap="round" stroke-linejoin="round"/></symbol>
<symbol id="notes" viewBox="0 0 24 24"><path d="M5 4h14v16H5zM8 8h8M8 12h8M8 16h5" fill="none" stroke="currentColor" stroke-width="1.8" stroke-linecap="round"/></symbol>
<symbol id="work" viewBox="0 0 24 24"><path d="M4 7h16v13H4zM8 7V4h8v3M4 11h16M10 11v3h4v-3" fill="none" stroke="currentColor" stroke-width="1.8" stroke-linejoin="round"/></symbol>
<symbol id="other" viewBox="0 0 24 24"><circle cx="12" cy="12" r="9" fill="none" stroke="currentColor" stroke-width="1.8"/><path d="M9 12h6M12 9v6" stroke="currentColor" stroke-width="1.8" stroke-linecap="round"/></symbol>
</svg>
